<?xml version="1.0" encoding="UTF-8" standalone="no"?>
<svg width="218px" height="218px" viewBox="0 0 218 218" version="1.1" xmlns="http://www.w3.org/2000/svg" xmlns:xlink="http://www.w3.org/1999/xlink">
    <!-- Generator: Sketch 39.1 (31720) - http://www.bohemiancoding.com/sketch -->
    <title>Group 2 Copy</title>
    <desc>Created with Sketch.</desc>
    <defs>
        <polygon id="path-1" points="87 46 124 46 124 152.161137 105.5 186 87 152.161137"></polygon>
        <mask id="mask-2" maskContentUnits="userSpaceOnUse" maskUnits="objectBoundingBox" x="0" y="0" width="37" height="140" fill="white">
            <use xlink:href="#path-1"></use>
        </mask>
        <rect id="path-3" x="87" y="27" width="37" height="24" rx="10.56"></rect>
        <mask id="mask-4" maskContentUnits="userSpaceOnUse" maskUnits="objectBoundingBox" x="0" y="0" width="37" height="24" fill="white">
            <use xlink:href="#path-3"></use>
        </mask>
    </defs>
    <g id="Page-1" stroke="none" stroke-width="1" fill="none" fill-rule="evenodd">
        <g id="Group-2-Copy" transform="translate(109.000000, 109.000000) rotate(45.000000) translate(-109.000000, -109.000000) translate(3.000000, 3.000000)" stroke="#FFFFFF">
            <path d="M59.6374963,201.350002 C70.9828762,206.876808 83.4617732,210.438345 96.6312234,211.59165 C99.71811,211.861982 102.842937,212 106,212 C164.542183,212 212,164.542183 212,106 C212,47.4578165 164.542183,0 106,0 C47.4578165,0 0,47.4578165 0,106 C0,147.91628 24.3296231,184.150072 59.6374963,201.350002 Z" id="Oval" stroke-width="5"></path>
            <use id="Rectangle-3" mask="url(#mask-2)" stroke-width="13.2" xlink:href="#path-1"></use>
            <use id="Rectangle-4" mask="url(#mask-4)" stroke-width="13.2" xlink:href="#path-3"></use>
            <path d="M94.65,144.5 L119.35,144.5" id="Line" stroke-width="6.6" stroke-linecap="square"></path>
            <path d="M105,49 L105,143.476662" id="Line" stroke-width="6.6" stroke-linecap="square"></path>
        </g>
    </g>
</svg>