<?xml version="1.0" encoding="UTF-8" standalone="no"?>
<svg width="218px" height="218px" viewBox="0 0 218 218" version="1.1" xmlns="http://www.w3.org/2000/svg" xmlns:xlink="http://www.w3.org/1999/xlink">
    <!-- Generator: Sketch 39.1 (31720) - http://www.bohemiancoding.com/sketch -->
    <title>Group Copy</title>
    <desc>Created with Sketch.</desc>
    <defs>
        <polygon id="path-1" points="141.927743 83 158 153 54 153 70.0722568 83"></polygon>
        <mask id="mask-2" maskContentUnits="userSpaceOnUse" maskUnits="objectBoundingBox" x="0" y="0" width="104" height="70" fill="white">
            <use xlink:href="#path-1"></use>
        </mask>
        <path d="M80,50 C80,50 89.3115592,50 100.794658,50 L111.205342,50 C122.689915,50 132,59.3043732 132,70.8081361 L132,73.1918639 C132,84.6838801 122.688441,94 111.205342,94 L80,94" id="path-3"></path>
        <mask id="mask-4" maskContentUnits="userSpaceOnUse" maskUnits="objectBoundingBox" x="0" y="0" width="52" height="44" fill="white">
            <use xlink:href="#path-3"></use>
        </mask>
    </defs>
    <g id="Page-1" stroke="none" stroke-width="1" fill="none" fill-rule="evenodd">
        <g id="Group-Copy" transform="translate(3.000000, 3.000000)" stroke="#FFFFFF">
            <path d="M59.6374963,201.350002 C70.9828762,206.876808 83.4617732,210.438345 96.6312234,211.59165 C99.71811,211.861982 102.842937,212 106,212 C164.542183,212 212,164.542183 212,106 C212,47.4578165 164.542183,0 106,0 C47.4578165,0 0,47.4578165 0,106 C0,147.91628 24.3296231,184.150072 59.6374963,201.350002 Z" id="Oval-Copy" stroke-width="5"></path>
            <use id="Rectangle-5" mask="url(#mask-2)" stroke-width="13" xlink:href="#path-1"></use>
            <use id="Rectangle-6" mask="url(#mask-4)" stroke-width="13" stroke-linecap="round" stroke-dasharray="1,1,1" transform="translate(106.000000, 72.000000) scale(1, -1) rotate(90.000000) translate(-106.000000, -72.000000) " xlink:href="#path-3"></use>
        </g>
    </g>
</svg>