<?xml version="1.0" encoding="UTF-8" standalone="no"?>
<svg width="218px" height="218px" viewBox="0 0 218 218" version="1.1" xmlns="http://www.w3.org/2000/svg" xmlns:xlink="http://www.w3.org/1999/xlink">
    <!-- Generator: Sketch 39.1 (31720) - http://www.bohemiancoding.com/sketch -->
    <title>Group 2</title>
    <desc>Created with Sketch.</desc>
    <defs>
        <rect id="path-1" x="66" y="42" width="79" height="129" rx="7.2"></rect>
        <mask id="mask-2" maskContentUnits="userSpaceOnUse" maskUnits="objectBoundingBox" x="0" y="0" width="79" height="129" fill="white">
            <use xlink:href="#path-1"></use>
        </mask>
    </defs>
    <g id="Page-1" stroke="none" stroke-width="1" fill="none" fill-rule="evenodd">
        <g id="Group-2" transform="translate(3.000000, 3.000000)" stroke="#FFFFFF">
            <path d="M59.6374963,201.350002 C70.9828762,206.876808 83.4617732,210.438345 96.6312234,211.59165 C99.71811,211.861982 102.842937,212 106,212 C164.542183,212 212,164.542183 212,106 C212,47.4578165 164.542183,0 106,0 C47.4578165,0 0,47.4578165 0,106 C0,147.91628 24.3296231,184.150072 59.6374963,201.350002 Z" id="Oval" stroke-width="5"></path>
            <use id="Rectangle" mask="url(#mask-2)" stroke-width="9" xlink:href="#path-1"></use>
            <path d="M107,162 C110.865993,162 114,158.865993 114,155 C114,151.134007 110.865993,148 107,148 C103.134007,148 100,151.134007 100,155 C100,158.865993 103.134007,162 107,162 Z" id="Oval-2" stroke-width="4.5"></path>
            <path d="M69.4512195,140.5 L142.54878,140.5" id="Line" stroke-width="4.5" stroke-linecap="square"></path>
        </g>
    </g>
</svg>