<?xml version="1.0" encoding="UTF-8" standalone="no"?>
<svg width="55px" height="44px" viewBox="0 0 55 44" version="1.1" xmlns="http://www.w3.org/2000/svg" xmlns:xlink="http://www.w3.org/1999/xlink">
    <!-- Generator: Sketch 3.8.3 (29802) - http://www.bohemiancoding.com/sketch -->
    <title>Shape</title>
    <desc>Created with Sketch.</desc>
    <defs>
        <path d="M642.581088,2954.32385 C644.530492,2953.07583 646.026296,2951.09692 646.728297,2948.73956 C644.903093,2949.89802 642.886189,2950.73581 640.734284,2951.18937 C639.01708,2949.2249 636.562775,2948 633.846569,2948 C628.635558,2948 624.412749,2952.52116 624.412749,2958.09678 C624.412749,2958.88834 624.491049,2959.65969 624.653049,2960.39636 C616.812232,2959.97458 609.859717,2955.95898 605.202207,2949.84602 C604.389505,2951.34248 603.925104,2953.07583 603.925104,2954.92474 C603.925104,2958.42612 605.591008,2961.51726 608.123613,2963.3315 C606.57651,2963.2795 605.121207,2962.82016 603.846804,2962.06905 L603.846804,2962.19327 C603.846804,2967.0871 607.097611,2971.16915 611.42032,2972.0936 C610.626519,2972.33049 609.794917,2972.44894 608.930915,2972.44894 C608.323414,2972.44894 607.729412,2972.38827 607.157011,2972.26983 C608.355814,2976.27965 611.841521,2979.20324 615.97253,2979.28124 C612.740623,2981.99104 608.671715,2983.60306 604.251805,2983.60306 C603.490403,2983.60306 602.737102,2983.55973 602,2983.46439 C606.176909,2986.32731 611.13682,2988 616.466631,2988 C633.827669,2988 643.31549,2972.61361 643.31549,2959.26968 C643.31549,2958.83056 643.31009,2958.39434 643.29119,2957.96389 C645.135294,2956.53965 646.739097,2954.76008 648,2952.73494 C646.307096,2953.53806 644.487292,2954.08118 642.581088,2954.32385 Z" id="path-1"></path>
        <mask id="mask-2" maskContentUnits="userSpaceOnUse" maskUnits="objectBoundingBox" x="-1.2" y="-1.2" width="48.4" height="42.4">
            <rect x="600.8" y="2946.8" width="48.4" height="42.4" fill="white"></rect>
            <use xlink:href="#path-1" fill="black"></use>
        </mask>
    </defs>
    <g id="Welcome" stroke="none" stroke-width="1" fill="none" fill-rule="evenodd">
        <g id="Desktop-HD" transform="translate(-597.000000, -2946.000000)" stroke="#FFFFFF" stroke-width="2.4">
            <use id="Shape" mask="url(#mask-2)" xlink:href="#path-1"></use>
        </g>
    </g>
</svg>